<svg xmlns="http://www.w3.org/2000/svg" width="375" viewBox="0 0 375 375" height="375" version="1.0"><defs><clipPath id="a"><path d="M 0 95.90625 L 36 95.90625 L 36 144.65625 L 0 144.65625 Z M 0 95.90625"/></clipPath><clipPath id="b"><path d="M 36 95.90625 L 73 95.90625 L 73 144.65625 L 36 144.65625 Z M 36 95.90625"/></clipPath><clipPath id="c"><path d="M 73 95.90625 L 109 95.90625 L 109 144.65625 L 73 144.65625 Z M 73 95.90625"/></clipPath><clipPath id="d"><path d="M 109 95.90625 L 146 95.90625 L 146 144.65625 L 109 144.65625 Z M 109 95.90625"/></clipPath><clipPath id="e"><path d="M 146 95.90625 L 183 95.90625 L 183 144.65625 L 146 144.65625 Z M 146 95.90625"/></clipPath><clipPath id="f"><path d="M 183 95.90625 L 219 95.90625 L 219 144.65625 L 183 144.65625 Z M 183 95.90625"/></clipPath><clipPath id="g"><path d="M 219 95.90625 L 255.640625 95.90625 L 255.640625 144.65625 L 219 144.65625 Z M 219 95.90625"/></clipPath></defs><g clip-path="url(#a)"><path fill="#DFEA8D" d="M 26.785156 95.890625 L 35.847656 95.890625 L 9.277344 144.621094 L 0.210938 144.621094 Z M 26.785156 95.890625"/></g><g clip-path="url(#b)"><path fill="#DFEA8D" d="M 63.355469 95.890625 L 72.421875 95.890625 L 45.84375 144.621094 L 36.777344 144.621094 Z M 63.355469 95.890625"/></g><g clip-path="url(#c)"><path fill="#DFEA8D" d="M 99.925781 95.890625 L 108.992188 95.890625 L 82.414062 144.621094 L 73.347656 144.621094 Z M 99.925781 95.890625"/></g><g clip-path="url(#d)"><path fill="#DFEA8D" d="M 136.496094 95.890625 L 145.5625 95.890625 L 118.988281 144.621094 L 109.925781 144.621094 Z M 136.496094 95.890625"/></g><g clip-path="url(#e)"><path fill="#DFEA8D" d="M 173.070312 95.890625 L 182.132812 95.890625 L 155.5625 144.621094 L 146.492188 144.621094 Z M 173.070312 95.890625"/></g><g clip-path="url(#f)"><path fill="#DFEA8D" d="M 209.632812 95.890625 L 218.699219 95.890625 L 192.125 144.621094 L 183.0625 144.621094 Z M 209.632812 95.890625"/></g><g clip-path="url(#g)"><path fill="#DFEA8D" d="M 246.207031 95.890625 L 255.269531 95.890625 L 228.699219 144.621094 L 219.632812 144.621094 Z M 246.207031 95.890625"/></g><g fill="#FFF"><g><g><path d="M 13.8125 0 L 3.6875 0 L 3.6875 -64.484375 L 13.8125 -64.484375 L 13.8125 -36.84375 L 25.328125 -36.84375 L 25.328125 -64.484375 L 35.640625 -64.484375 L 35.640625 0 L 25.328125 0 L 25.328125 -27.640625 L 13.8125 -27.640625 Z M 13.8125 0" transform="translate(130.406 231.612)"/></g></g></g><g fill="#FFF"><g><g><path d="M 3.6875 -64.484375 L 13.8125 -64.484375 L 13.8125 0 L 3.6875 0 Z M 3.6875 -64.484375" transform="translate(169.733 231.612)"/></g></g></g><g fill="#FFF"><g><g><path d="M 17.59375 -65.125 C 22.5625 -65.125 26.226562 -63.648438 28.59375 -60.703125 C 30.957031 -57.753906 32.140625 -53.820312 32.140625 -48.90625 L 32.140625 -43.109375 L 25.328125 -43.109375 L 25.328125 -49.28125 C 25.328125 -52.226562 24.726562 -54.515625 23.53125 -56.140625 C 22.332031 -57.765625 20.414062 -58.578125 17.78125 -58.578125 C 15.195312 -58.578125 13.289062 -57.765625 12.0625 -56.140625 C 10.832031 -54.515625 10.21875 -52.226562 10.21875 -49.28125 L 10.21875 -15.203125 C 10.21875 -12.253906 10.832031 -9.960938 12.0625 -8.328125 C 13.289062 -6.703125 15.195312 -5.890625 17.78125 -5.890625 C 20.414062 -5.890625 22.332031 -6.703125 23.53125 -8.328125 C 24.726562 -9.960938 25.328125 -12.253906 25.328125 -15.203125 L 25.328125 -23.578125 L 32.140625 -23.578125 L 32.140625 -15.5625 C 32.140625 -10.65625 30.957031 -6.726562 28.59375 -3.78125 C 26.226562 -0.832031 22.5625 0.640625 17.59375 0.640625 C 12.675781 0.640625 9.035156 -0.832031 6.671875 -3.78125 C 4.304688 -6.726562 3.125 -10.65625 3.125 -15.5625 L 3.125 -48.90625 C 3.125 -51.363281 3.414062 -53.585938 4 -55.578125 C 4.582031 -57.578125 5.472656 -59.28125 6.671875 -60.6875 C 7.867188 -62.101562 9.375 -63.195312 11.1875 -63.96875 C 13 -64.738281 15.132812 -65.125 17.59375 -65.125 Z M 17.59375 -65.125" transform="translate(194.015 231.612)"/></g></g></g><g fill="#FFF"><g><g><path d="M 3.125 -48.90625 C 3.125 -53.882812 4.335938 -57.832031 6.765625 -60.75 C 9.191406 -63.664062 12.894531 -65.125 17.875 -65.125 C 22.84375 -65.125 26.554688 -63.664062 29.015625 -60.75 C 31.472656 -57.832031 32.703125 -53.882812 32.703125 -48.90625 L 32.703125 -15.5625 C 32.703125 -10.65625 31.472656 -6.726562 29.015625 -3.78125 C 26.554688 -0.832031 22.84375 0.640625 17.875 0.640625 C 12.894531 0.640625 9.191406 -0.832031 6.765625 -3.78125 C 4.335938 -6.726562 3.125 -10.65625 3.125 -15.5625 Z M 10.21875 -15.203125 C 10.21875 -12.253906 10.847656 -9.960938 12.109375 -8.328125 C 13.367188 -6.703125 15.289062 -5.890625 17.875 -5.890625 C 20.507812 -5.890625 22.441406 -6.703125 23.671875 -8.328125 C 24.898438 -9.960938 25.515625 -12.253906 25.515625 -15.203125 L 25.515625 -49.28125 C 25.515625 -52.226562 24.898438 -54.515625 23.671875 -56.140625 C 22.441406 -57.765625 20.507812 -58.578125 17.875 -58.578125 C 15.289062 -58.578125 13.367188 -57.765625 12.109375 -56.140625 C 10.847656 -54.515625 10.21875 -52.226562 10.21875 -49.28125 Z M 10.21875 -15.203125" transform="translate(229.013 231.612)"/></g></g></g><g fill="#FFF"><g><g><path d="M 10.96875 -12.984375 L 8.46875 0 L 1.84375 0 L 14.1875 -64.484375 L 24.59375 -64.484375 L 36.9375 0 L 29.75 0 L 27.265625 -12.984375 Z M 11.875 -19.15625 L 26.25 -19.15625 L 18.96875 -56.375 Z M 11.875 -19.15625" transform="translate(264.84 231.612)"/></g></g></g><g fill="#FFF"><g><g><path d="M 17.59375 -65.125 C 22.5625 -65.125 26.226562 -63.648438 28.59375 -60.703125 C 30.957031 -57.753906 32.140625 -53.820312 32.140625 -48.90625 L 32.140625 -43.109375 L 25.328125 -43.109375 L 25.328125 -49.28125 C 25.328125 -52.226562 24.726562 -54.515625 23.53125 -56.140625 C 22.332031 -57.765625 20.414062 -58.578125 17.78125 -58.578125 C 15.195312 -58.578125 13.289062 -57.765625 12.0625 -56.140625 C 10.832031 -54.515625 10.21875 -52.226562 10.21875 -49.28125 L 10.21875 -15.203125 C 10.21875 -12.253906 10.832031 -9.960938 12.0625 -8.328125 C 13.289062 -6.703125 15.195312 -5.890625 17.78125 -5.890625 C 20.414062 -5.890625 22.332031 -6.703125 23.53125 -8.328125 C 24.726562 -9.960938 25.328125 -12.253906 25.328125 -15.203125 L 25.328125 -23.578125 L 32.140625 -23.578125 L 32.140625 -15.5625 C 32.140625 -10.65625 30.957031 -6.726562 28.59375 -3.78125 C 26.226562 -0.832031 22.5625 0.640625 17.59375 0.640625 C 12.675781 0.640625 9.035156 -0.832031 6.671875 -3.78125 C 4.304688 -6.726562 3.125 -10.65625 3.125 -15.5625 L 3.125 -48.90625 C 3.125 -51.363281 3.414062 -53.585938 4 -55.578125 C 4.582031 -57.578125 5.472656 -59.28125 6.671875 -60.6875 C 7.867188 -62.101562 9.375 -63.195312 11.1875 -63.96875 C 13 -64.738281 15.132812 -65.125 17.59375 -65.125 Z M 17.59375 -65.125" transform="translate(303.706 231.612)"/></g></g></g><g fill="#FFF"><g><g><path d="M 10.875 -29.015625 L 10.875 0 L 3.6875 0 L 3.6875 -64.484375 L 10.875 -64.484375 L 10.875 -35.46875 L 26.71875 -35.46875 L 26.71875 -64.484375 L 33.890625 -64.484375 L 33.890625 0 L 26.71875 0 L 26.71875 -29.015625 Z M 10.875 -29.015625" transform="translate(338.704 231.612)"/></g></g></g><g fill="#FFF"><g><g><path d="M 2.890625 0 C 1.628906 0 1.09375 -0.625 1.28125 -1.875 L 3.578125 -16.46875 C 3.734375 -17.53125 4.359375 -18.0625 5.453125 -18.0625 L 14.5 -18.0625 C 15.414062 -18.0625 15.875 -17.707031 15.875 -17 C 15.875 -16.507812 15.734375 -16.125 15.453125 -15.84375 C 15.171875 -15.570312 14.800781 -15.4375 14.34375 -15.4375 L 6.578125 -15.4375 L 5.78125 -10.46875 L 12.75 -10.46875 C 13.65625 -10.46875 14.109375 -10.117188 14.109375 -9.421875 C 14.109375 -8.929688 13.96875 -8.546875 13.6875 -8.265625 C 13.40625 -7.992188 13.035156 -7.859375 12.578125 -7.859375 L 5.375 -7.859375 L 4.53125 -2.609375 L 12.03125 -2.609375 C 12.957031 -2.609375 13.421875 -2.257812 13.421875 -1.5625 C 13.421875 -1.0625 13.28125 -0.675781 13 -0.40625 C 12.71875 -0.132812 12.34375 0 11.875 0 Z M 2.890625 0" transform="translate(62.759 272.974)"/></g></g></g><g fill="#FFF"><g><g><path d="M 2.5625 0.203125 C 2.082031 0.203125 1.71875 0.046875 1.46875 -0.265625 C 1.21875 -0.585938 1.140625 -1.035156 1.234375 -1.609375 L 3.65625 -16.875 C 3.75 -17.351562 3.925781 -17.703125 4.1875 -17.921875 C 4.445312 -18.148438 4.773438 -18.265625 5.171875 -18.265625 C 5.597656 -18.265625 5.914062 -18.179688 6.125 -18.015625 C 6.34375 -17.847656 6.5625 -17.585938 6.78125 -17.234375 L 13.9375 -5.09375 L 15.78125 -16.75 C 15.925781 -17.757812 16.515625 -18.265625 17.546875 -18.265625 C 18.023438 -18.265625 18.367188 -18.101562 18.578125 -17.78125 C 18.796875 -17.46875 18.859375 -17.03125 18.765625 -16.46875 L 16.359375 -1.234375 C 16.210938 -0.273438 15.742188 0.203125 14.953125 0.203125 C 14.523438 0.203125 14.179688 0.117188 13.921875 -0.046875 C 13.671875 -0.222656 13.4375 -0.5 13.21875 -0.875 L 6.0625 -12.953125 L 4.21875 -1.3125 C 4.15625 -0.789062 3.988281 -0.40625 3.71875 -0.15625 C 3.457031 0.0820312 3.070312 0.203125 2.5625 0.203125 Z M 2.5625 0.203125" transform="translate(84.39 272.974)"/></g></g></g><g fill="#FFF"><g><g><path d="M 0.359375 0.171875 C -0.117188 0.191406 -0.492188 0.0859375 -0.765625 -0.140625 C -1.035156 -0.367188 -1.164062 -0.695312 -1.15625 -1.125 C -1.113281 -2 -0.6875 -2.460938 0.125 -2.515625 L 0.921875 -2.5625 C 1.722656 -2.613281 2.34375 -2.859375 2.78125 -3.296875 C 3.226562 -3.742188 3.519531 -4.410156 3.65625 -5.296875 L 5.484375 -16.75 C 5.628906 -17.757812 6.21875 -18.265625 7.25 -18.265625 C 7.789062 -18.265625 8.1875 -18.101562 8.4375 -17.78125 C 8.695312 -17.46875 8.785156 -17.03125 8.703125 -16.46875 L 6.890625 -5.015625 C 6.628906 -3.410156 6.066406 -2.1875 5.203125 -1.34375 C 4.347656 -0.5 2.988281 -0.0078125 1.125 0.125 Z M 0.359375 0.171875" transform="translate(109.862 272.974)"/></g></g></g><g fill="#FFF"><g><g><path d="M 9.75 0.25 C 8.144531 0.25 6.742188 -0.0546875 5.546875 -0.671875 C 4.359375 -1.285156 3.4375 -2.179688 2.78125 -3.359375 C 2.125 -4.546875 1.796875 -5.976562 1.796875 -7.65625 C 1.796875 -9.71875 2.175781 -11.546875 2.9375 -13.140625 C 3.695312 -14.742188 4.785156 -16.003906 6.203125 -16.921875 C 7.617188 -17.847656 9.300781 -18.3125 11.25 -18.3125 C 12.863281 -18.3125 14.265625 -18.003906 15.453125 -17.390625 C 16.640625 -16.773438 17.5625 -15.878906 18.21875 -14.703125 C 18.875 -13.523438 19.203125 -12.097656 19.203125 -10.421875 C 19.203125 -8.359375 18.820312 -6.523438 18.0625 -4.921875 C 17.300781 -3.316406 16.21875 -2.050781 14.8125 -1.125 C 13.40625 -0.207031 11.71875 0.25 9.75 0.25 Z M 9.8125 -2.5625 C 11.09375 -2.5625 12.175781 -2.894531 13.0625 -3.5625 C 13.945312 -4.238281 14.617188 -5.164062 15.078125 -6.34375 C 15.546875 -7.53125 15.78125 -8.875 15.78125 -10.375 C 15.78125 -12.09375 15.367188 -13.375 14.546875 -14.21875 C 13.722656 -15.070312 12.597656 -15.5 11.171875 -15.5 C 9.898438 -15.5 8.820312 -15.164062 7.9375 -14.5 C 7.050781 -13.832031 6.375 -12.910156 5.90625 -11.734375 C 5.445312 -10.566406 5.21875 -9.222656 5.21875 -7.703125 C 5.21875 -5.960938 5.628906 -4.671875 6.453125 -3.828125 C 7.273438 -2.984375 8.394531 -2.5625 9.8125 -2.5625 Z M 9.8125 -2.5625" transform="translate(125.275 272.974)"/></g></g></g><g fill="#FFF"><g><g><path d="M 6.890625 0.203125 C 6.359375 0.203125 5.976562 0.0351562 5.75 -0.296875 C 5.53125 -0.640625 5.46875 -1.113281 5.5625 -1.71875 L 6.609375 -8.265625 L 2.375 -15.921875 C 2.050781 -16.523438 2.015625 -17.066406 2.265625 -17.546875 C 2.515625 -18.023438 2.972656 -18.265625 3.640625 -18.265625 C 4.023438 -18.265625 4.34375 -18.171875 4.59375 -17.984375 C 4.84375 -17.804688 5.097656 -17.488281 5.359375 -17.03125 L 8.5 -11.1875 L 13.734375 -17.234375 C 14.066406 -17.628906 14.359375 -17.898438 14.609375 -18.046875 C 14.867188 -18.191406 15.191406 -18.265625 15.578125 -18.265625 C 15.992188 -18.265625 16.328125 -18.144531 16.578125 -17.90625 C 16.828125 -17.664062 16.953125 -17.363281 16.953125 -17 C 16.953125 -16.644531 16.800781 -16.285156 16.5 -15.921875 L 9.890625 -8.328125 L 8.78125 -1.4375 C 8.613281 -0.34375 7.984375 0.203125 6.890625 0.203125 Z M 6.890625 0.203125" transform="translate(151.719 272.974)"/></g></g></g><g fill="#FFF"><g><g><path d="M 10.0625 0.25 C 8.457031 0.25 7.035156 -0.0507812 5.796875 -0.65625 C 4.554688 -1.257812 3.582031 -2.164062 2.875 -3.375 C 2.164062 -4.59375 1.8125 -6.113281 1.8125 -7.9375 C 1.8125 -9.40625 2.03125 -10.765625 2.46875 -12.015625 C 2.90625 -13.273438 3.535156 -14.375 4.359375 -15.3125 C 5.191406 -16.25 6.210938 -16.984375 7.421875 -17.515625 C 8.640625 -18.046875 10.015625 -18.3125 11.546875 -18.3125 C 12.535156 -18.3125 13.484375 -18.179688 14.390625 -17.921875 C 15.296875 -17.671875 16.09375 -17.296875 16.78125 -16.796875 C 17.15625 -16.523438 17.363281 -16.195312 17.40625 -15.8125 C 17.445312 -15.425781 17.367188 -15.066406 17.171875 -14.734375 C 16.972656 -14.398438 16.710938 -14.171875 16.390625 -14.046875 C 16.066406 -13.921875 15.722656 -13.976562 15.359375 -14.21875 C 14.691406 -14.65625 14.039062 -14.957031 13.40625 -15.125 C 12.78125 -15.300781 12.128906 -15.390625 11.453125 -15.390625 C 10.128906 -15.390625 9.007812 -15.066406 8.09375 -14.421875 C 7.1875 -13.785156 6.492188 -12.910156 6.015625 -11.796875 C 5.535156 -10.691406 5.296875 -9.441406 5.296875 -8.046875 C 5.296875 -6.148438 5.726562 -4.773438 6.59375 -3.921875 C 7.457031 -3.078125 8.71875 -2.65625 10.375 -2.65625 C 11 -2.65625 11.601562 -2.734375 12.1875 -2.890625 C 12.769531 -3.046875 13.367188 -3.300781 13.984375 -3.65625 C 14.410156 -3.914062 14.789062 -3.984375 15.125 -3.859375 C 15.457031 -3.742188 15.695312 -3.523438 15.84375 -3.203125 C 16 -2.878906 16.039062 -2.53125 15.96875 -2.15625 C 15.90625 -1.789062 15.675781 -1.484375 15.28125 -1.234375 C 14.53125 -0.734375 13.6875 -0.359375 12.75 -0.109375 C 11.8125 0.128906 10.914062 0.25 10.0625 0.25 Z M 10.0625 0.25" transform="translate(187.177 272.974)"/></g></g></g><g fill="#FFF"><g><g><path d="M 9.75 0.25 C 8.144531 0.25 6.742188 -0.0546875 5.546875 -0.671875 C 4.359375 -1.285156 3.4375 -2.179688 2.78125 -3.359375 C 2.125 -4.546875 1.796875 -5.976562 1.796875 -7.65625 C 1.796875 -9.71875 2.175781 -11.546875 2.9375 -13.140625 C 3.695312 -14.742188 4.785156 -16.003906 6.203125 -16.921875 C 7.617188 -17.847656 9.300781 -18.3125 11.25 -18.3125 C 12.863281 -18.3125 14.265625 -18.003906 15.453125 -17.390625 C 16.640625 -16.773438 17.5625 -15.878906 18.21875 -14.703125 C 18.875 -13.523438 19.203125 -12.097656 19.203125 -10.421875 C 19.203125 -8.359375 18.820312 -6.523438 18.0625 -4.921875 C 17.300781 -3.316406 16.21875 -2.050781 14.8125 -1.125 C 13.40625 -0.207031 11.71875 0.25 9.75 0.25 Z M 9.8125 -2.5625 C 11.09375 -2.5625 12.175781 -2.894531 13.0625 -3.5625 C 13.945312 -4.238281 14.617188 -5.164062 15.078125 -6.34375 C 15.546875 -7.53125 15.78125 -8.875 15.78125 -10.375 C 15.78125 -12.09375 15.367188 -13.375 14.546875 -14.21875 C 13.722656 -15.070312 12.597656 -15.5 11.171875 -15.5 C 9.898438 -15.5 8.820312 -15.164062 7.9375 -14.5 C 7.050781 -13.832031 6.375 -12.910156 5.90625 -11.734375 C 5.445312 -10.566406 5.21875 -9.222656 5.21875 -7.703125 C 5.21875 -5.960938 5.628906 -4.671875 6.453125 -3.828125 C 7.273438 -2.984375 8.394531 -2.5625 9.8125 -2.5625 Z M 9.8125 -2.5625" transform="translate(210.933 272.974)"/></g></g></g><g fill="#FFF"><g><g><path d="M 1.328125 0.203125 C 0.753906 0.203125 0.328125 0.0078125 0.046875 -0.375 C -0.222656 -0.757812 -0.195312 -1.222656 0.125 -1.765625 L 9.53125 -17.125 C 9.769531 -17.519531 10.03125 -17.804688 10.3125 -17.984375 C 10.601562 -18.171875 10.960938 -18.265625 11.390625 -18.265625 C 12.285156 -18.265625 12.859375 -17.816406 13.109375 -16.921875 L 17.515625 -1.84375 C 17.722656 -1.15625 17.6875 -0.640625 17.40625 -0.296875 C 17.125 0.0351562 16.734375 0.203125 16.234375 0.203125 C 15.753906 0.203125 15.390625 0.0820312 15.140625 -0.15625 C 14.898438 -0.394531 14.710938 -0.757812 14.578125 -1.25 L 13.796875 -4.171875 L 4.96875 -4.171875 L 2.96875 -0.765625 C 2.570312 -0.117188 2.023438 0.203125 1.328125 0.203125 Z M 11.015625 -14.5 L 6.484375 -6.78125 L 13.09375 -6.78125 L 11.0625 -14.5 Z M 11.015625 -14.5" transform="translate(237.377 272.974)"/></g></g></g><g fill="#FFF"><g><g><path d="M 10.0625 0.25 C 8.457031 0.25 7.035156 -0.0507812 5.796875 -0.65625 C 4.554688 -1.257812 3.582031 -2.164062 2.875 -3.375 C 2.164062 -4.59375 1.8125 -6.113281 1.8125 -7.9375 C 1.8125 -9.40625 2.03125 -10.765625 2.46875 -12.015625 C 2.90625 -13.273438 3.535156 -14.375 4.359375 -15.3125 C 5.191406 -16.25 6.210938 -16.984375 7.421875 -17.515625 C 8.640625 -18.046875 10.015625 -18.3125 11.546875 -18.3125 C 12.535156 -18.3125 13.484375 -18.179688 14.390625 -17.921875 C 15.296875 -17.671875 16.09375 -17.296875 16.78125 -16.796875 C 17.15625 -16.523438 17.363281 -16.195312 17.40625 -15.8125 C 17.445312 -15.425781 17.367188 -15.066406 17.171875 -14.734375 C 16.972656 -14.398438 16.710938 -14.171875 16.390625 -14.046875 C 16.066406 -13.921875 15.722656 -13.976562 15.359375 -14.21875 C 14.691406 -14.65625 14.039062 -14.957031 13.40625 -15.125 C 12.78125 -15.300781 12.128906 -15.390625 11.453125 -15.390625 C 10.128906 -15.390625 9.007812 -15.066406 8.09375 -14.421875 C 7.1875 -13.785156 6.492188 -12.910156 6.015625 -11.796875 C 5.535156 -10.691406 5.296875 -9.441406 5.296875 -8.046875 C 5.296875 -6.148438 5.726562 -4.773438 6.59375 -3.921875 C 7.457031 -3.078125 8.71875 -2.65625 10.375 -2.65625 C 11 -2.65625 11.601562 -2.734375 12.1875 -2.890625 C 12.769531 -3.046875 13.367188 -3.300781 13.984375 -3.65625 C 14.410156 -3.914062 14.789062 -3.984375 15.125 -3.859375 C 15.457031 -3.742188 15.695312 -3.523438 15.84375 -3.203125 C 16 -2.878906 16.039062 -2.53125 15.96875 -2.15625 C 15.90625 -1.789062 15.675781 -1.484375 15.28125 -1.234375 C 14.53125 -0.734375 13.6875 -0.359375 12.75 -0.109375 C 11.8125 0.128906 10.914062 0.25 10.0625 0.25 Z M 10.0625 0.25" transform="translate(262.772 272.974)"/></g></g></g><g fill="#FFF"><g><g><path d="M 2.640625 0.203125 C 2.085938 0.203125 1.691406 0.0351562 1.453125 -0.296875 C 1.210938 -0.640625 1.144531 -1.117188 1.25 -1.734375 L 3.609375 -16.625 C 3.773438 -17.71875 4.398438 -18.265625 5.484375 -18.265625 C 6.023438 -18.265625 6.410156 -18.09375 6.640625 -17.75 C 6.867188 -17.40625 6.9375 -16.925781 6.84375 -16.3125 L 5.921875 -10.53125 L 15.21875 -10.53125 L 16.1875 -16.625 C 16.351562 -17.71875 16.96875 -18.265625 18.03125 -18.265625 C 19.15625 -18.265625 19.613281 -17.613281 19.40625 -16.3125 L 17.0625 -1.453125 C 16.875 -0.347656 16.257812 0.203125 15.21875 0.203125 C 14.644531 0.203125 14.242188 0.0351562 14.015625 -0.296875 C 13.785156 -0.640625 13.722656 -1.117188 13.828125 -1.734375 L 14.78125 -7.78125 L 5.484375 -7.78125 L 4.484375 -1.453125 C 4.296875 -0.347656 3.679688 0.203125 2.640625 0.203125 Z M 2.640625 0.203125" transform="translate(286.528 272.974)"/></g></g></g><g fill="#FFF"><g><g><path d="M 2.65625 0.203125 C 2.09375 0.203125 1.691406 0.0351562 1.453125 -0.296875 C 1.210938 -0.640625 1.144531 -1.117188 1.25 -1.734375 L 3.609375 -16.625 C 3.773438 -17.71875 4.398438 -18.265625 5.484375 -18.265625 C 6.585938 -18.265625 7.039062 -17.613281 6.84375 -16.3125 L 4.484375 -1.453125 C 4.296875 -0.347656 3.6875 0.203125 2.65625 0.203125 Z M 2.65625 0.203125" transform="translate(312.665 272.974)"/></g></g></g><g fill="#FFF"><g><g><path d="M 2.5625 0.203125 C 2.082031 0.203125 1.71875 0.046875 1.46875 -0.265625 C 1.21875 -0.585938 1.140625 -1.035156 1.234375 -1.609375 L 3.65625 -16.875 C 3.75 -17.351562 3.925781 -17.703125 4.1875 -17.921875 C 4.445312 -18.148438 4.773438 -18.265625 5.171875 -18.265625 C 5.597656 -18.265625 5.914062 -18.179688 6.125 -18.015625 C 6.34375 -17.847656 6.5625 -17.585938 6.78125 -17.234375 L 13.9375 -5.09375 L 15.78125 -16.75 C 15.925781 -17.757812 16.515625 -18.265625 17.546875 -18.265625 C 18.023438 -18.265625 18.367188 -18.101562 18.578125 -17.78125 C 18.796875 -17.46875 18.859375 -17.03125 18.765625 -16.46875 L 16.359375 -1.234375 C 16.210938 -0.273438 15.742188 0.203125 14.953125 0.203125 C 14.523438 0.203125 14.179688 0.117188 13.921875 -0.046875 C 13.671875 -0.222656 13.4375 -0.5 13.21875 -0.875 L 6.0625 -12.953125 L 4.21875 -1.3125 C 4.15625 -0.789062 3.988281 -0.40625 3.71875 -0.15625 C 3.457031 0.0820312 3.070312 0.203125 2.5625 0.203125 Z M 2.5625 0.203125" transform="translate(326.235 272.974)"/></g></g></g><g fill="#FFF"><g><g><path d="M 10.1875 0.25 C 8.519531 0.25 7.050781 -0.0546875 5.78125 -0.671875 C 4.519531 -1.285156 3.539062 -2.1875 2.84375 -3.375 C 2.144531 -4.570312 1.796875 -6.035156 1.796875 -7.765625 C 1.796875 -9.804688 2.1875 -11.617188 2.96875 -13.203125 C 3.757812 -14.796875 4.898438 -16.046875 6.390625 -16.953125 C 7.878906 -17.859375 9.675781 -18.3125 11.78125 -18.3125 C 13.894531 -18.3125 15.65625 -17.847656 17.0625 -16.921875 C 17.46875 -16.648438 17.703125 -16.3125 17.765625 -15.90625 C 17.835938 -15.507812 17.78125 -15.140625 17.59375 -14.796875 C 17.40625 -14.460938 17.132812 -14.226562 16.78125 -14.09375 C 16.4375 -13.96875 16.054688 -14.039062 15.640625 -14.3125 C 14.503906 -15.0625 13.15625 -15.4375 11.59375 -15.4375 C 10.25 -15.4375 9.101562 -15.109375 8.15625 -14.453125 C 7.207031 -13.796875 6.476562 -12.898438 5.96875 -11.765625 C 5.46875 -10.628906 5.21875 -9.335938 5.21875 -7.890625 C 5.21875 -6.078125 5.6875 -4.734375 6.625 -3.859375 C 7.570312 -2.992188 8.914062 -2.5625 10.65625 -2.5625 C 11.21875 -2.5625 11.757812 -2.601562 12.28125 -2.6875 C 12.800781 -2.769531 13.316406 -2.890625 13.828125 -3.046875 L 14.515625 -7.328125 L 11.734375 -7.328125 C 11.304688 -7.328125 10.96875 -7.421875 10.71875 -7.609375 C 10.46875 -7.796875 10.34375 -8.050781 10.34375 -8.375 C 10.34375 -8.820312 10.476562 -9.160156 10.75 -9.390625 C 11.03125 -9.628906 11.40625 -9.75 11.875 -9.75 L 16.0625 -9.75 C 16.550781 -9.75 16.914062 -9.613281 17.15625 -9.34375 C 17.394531 -9.070312 17.472656 -8.6875 17.390625 -8.1875 L 16.421875 -2.046875 C 16.296875 -1.265625 15.882812 -0.753906 15.1875 -0.515625 C 14.488281 -0.273438 13.691406 -0.0859375 12.796875 0.046875 C 11.910156 0.179688 11.039062 0.25 10.1875 0.25 Z M 10.1875 0.25" transform="translate(351.706 272.974)"/></g></g></g></svg>